<svg width="96" height="30" viewBox="0 0 96 30" fill="none" xmlns="http://www.w3.org/2000/svg">
<path d="M81.1779 6.97132C80.9356 6.55282 80.6603 6.1123 80.3519 5.64974C80.0656 5.18719 79.7792 4.73565 79.4929 4.29513C79.2065 3.8546 78.9312 3.45813 78.6669 3.10571C78.4246 2.73126 78.2264 2.43391 78.0722 2.21364L81.3761 0.06608C81.6404 0.396474 81.9708 0.848013 82.3673 1.4207C82.7858 1.99338 83.1933 2.57708 83.5898 3.17179C83.9862 3.7665 84.3497 4.31715 84.6801 4.82376C85.0105 5.33036 85.2307 5.68278 85.3409 5.88102L83.4246 6.97132H85.7704C86.1448 6.42066 86.5193 5.82595 86.8937 5.18719C87.2902 4.54843 87.6646 3.90967 88.0171 3.27091C88.3915 2.63214 88.7329 2.02642 89.0413 1.45374C89.3717 0.881052 89.647 0.396473 89.8673 0L93.7659 1.85021C93.3474 2.55505 92.8518 3.38104 92.2791 4.32817C91.7065 5.25327 91.1558 6.13432 90.6272 6.97132H94.691V11.0021H77.8739V6.97132H81.1779ZM66.1119 10.0109V6.14534H69.9114V0.892065H74.0083V6.14534H77.1471V10.0109H74.0083V12.3898L74.6691 11.7951C74.9114 12.0594 75.2088 12.3788 75.5612 12.7532C75.9136 13.1056 76.266 13.4801 76.6185 13.8766C76.9929 14.273 77.3453 14.6585 77.6757 15.0329C78.0281 15.4074 78.3145 15.7378 78.5347 16.0241V15.4625H93.6998V19.5263H78.5347V16.0902L75.7925 18.5682C75.5502 18.2598 75.2638 17.9184 74.9334 17.5439C74.6251 17.1695 74.3167 16.795 74.0083 16.4206V29.7685H69.9114V10.0109H66.1119ZM65.8146 22.1364C65.9247 22.1364 66.0018 22.0924 66.0458 22.0043C66.1119 21.8941 66.167 21.6739 66.211 21.3435C66.2551 21.0131 66.2771 20.5505 66.2771 19.9558C66.2991 19.3611 66.3101 18.5682 66.3101 17.577V11.6629H69.4489V17.577C69.4489 18.9646 69.4048 20.1871 69.3167 21.2444C69.2507 22.3016 69.0855 23.1827 68.8211 23.8875C68.5789 24.5703 68.2264 25.0879 67.7639 25.4404C67.3234 25.7928 66.7397 25.969 66.0128 25.969H65.385V22.1364H65.8146ZM75.6603 29.1077V24.9448H95.484V29.1077H75.6603Z" fill="white"/>
<path d="M46.1561 11.6312V8.29423H40.1759C39.8455 8.97705 39.3389 9.45061 38.6561 9.71493C37.9953 9.97924 37.1363 10.1114 36.079 10.1114H34.5262V6.21275H35.7817C36.2663 6.21275 36.5086 5.79425 36.5086 4.95725V1.19075H40.6385V4.52773H46.1561V1.05859H50.3521V4.52773H60.1648V8.29423H50.3521V11.6312H61.9159V15.4638H33.3037V11.6312H46.1561ZM40.4072 16.5871V17.4131H55.5393C56.7948 17.4131 57.7309 17.7325 58.3476 18.3713C58.9644 18.988 59.2727 19.8911 59.2727 21.0805V29.9351H54.9776V28.9439H40.4072V29.9351H36.1121V16.5871H40.4072ZM40.4072 25.2435H54.9776V21.1135H40.4072V25.2435Z" fill="white"/>
<path d="M18.5021 1.02539H22.7311V3.27207C22.7311 4.32933 22.8633 5.32052 23.1276 6.24562C23.3919 7.1487 23.7554 7.94165 24.2179 8.62446C24.7025 9.28525 25.2642 9.80287 25.9029 10.1773C26.5417 10.5518 27.2355 10.739 27.9844 10.739H29.1738V14.902H27.9844C26.4426 14.902 25.0769 14.5826 23.8875 13.9438C22.7201 13.305 21.7289 12.457 20.914 11.3998C20.121 10.3205 19.5153 9.08701 19.0968 7.69936C18.7003 6.28967 18.5021 4.81391 18.5021 3.27207V1.02539ZM0 14.902V10.739H1.18942C1.93831 10.739 2.63214 10.5518 3.2709 10.1773C3.90967 9.80287 4.46032 9.28525 4.92288 8.62446C5.40745 7.94165 5.7819 7.1487 6.04622 6.24562C6.31053 5.32052 6.44269 4.32933 6.44269 3.27207V1.02539H10.6717V3.27207C10.6717 4.81391 10.4625 6.28967 10.044 7.69936C9.64751 9.08701 9.04179 10.3205 8.22682 11.3998C7.43387 12.457 6.44269 13.305 5.25327 13.9438C4.08588 14.5826 2.73126 14.902 1.18942 14.902H0ZM3.13875 24.7807C4.65856 22.5341 6.15635 20.2984 7.63211 18.0737C9.1299 15.8271 10.6277 13.5694 12.1255 11.3007L15.958 13.4482L8.39202 24.6155L20.121 23.9878C19.5483 22.9305 18.9756 21.9063 18.403 20.9151C17.8523 19.9239 17.3347 19.0429 16.8501 18.272L20.1541 16.5539C20.6827 17.3469 21.2333 18.2059 21.806 19.131C22.4007 20.0561 22.9954 21.0142 23.5902 22.0054C24.2069 22.9966 24.8016 23.9988 25.3743 25.012C25.969 26.0252 26.5307 27.0164 27.0593 27.9856L23.2267 30.001C22.8743 29.3182 22.5219 28.6133 22.1695 27.8864C21.5527 27.9085 20.7818 27.9415 19.8567 27.9856C18.9316 28.0296 17.9294 28.0737 16.8501 28.1177C15.7928 28.1618 14.6915 28.2058 13.5462 28.2499C12.4228 28.316 11.3325 28.371 10.2753 28.4151C9.218 28.4812 8.22682 28.5362 7.30171 28.5803C6.39864 28.6464 5.64974 28.7014 5.05503 28.7455H4.88984C4.40526 28.7455 3.98676 28.6133 3.63434 28.349C3.30394 28.0847 3.06165 27.7653 2.90747 27.3909C2.75329 27.0384 2.67619 26.675 2.67619 26.3006C2.67619 26.2125 2.68721 26.0362 2.70923 25.7719C2.73126 25.5076 2.87443 25.1772 3.13875 24.7807Z" fill="white"/>
</svg>
