<svg width="32" height="32" viewBox="0 0 32 32" fill="none" xmlns="http://www.w3.org/2000/svg">
<g clip-path="url(#clip0_3056_4554)">
<path d="M17.7777 0C25.6326 0 32 6.36743 32 14.2223V28.4446C32 29.3875 31.6254 30.2919 30.9586 30.9586C30.2919 31.6254 29.3875 32 28.4446 32H14.2217C6.368 32 0 25.6326 0 17.7777V14.2229C0 6.36743 6.36743 0 14.2223 0H17.7777ZM22.3149 6.64C21.9056 6.53033 21.4702 6.57866 21.0949 6.77537C20.7197 6.97208 20.4323 7.30277 20.2897 7.70171L20.2509 7.82743L19.2549 11.5274L19.184 11.5217L19.1126 11.52L16.0063 11.5194L16.7663 8.69543C16.8233 8.48223 16.8377 8.25988 16.8086 8.04111C16.7795 7.82235 16.7075 7.61148 16.5968 7.42058C16.4861 7.22968 16.3387 7.06252 16.1633 6.92867C15.9878 6.79482 15.7877 6.69692 15.5743 6.64057C15.1652 6.53104 14.7299 6.57936 14.3549 6.77595C13.9798 6.97253 13.6924 7.303 13.5497 7.70171L13.5103 7.82743L12.516 11.5194L7.55143 11.52C7.37658 11.5196 7.20338 11.5537 7.0417 11.6203C6.88001 11.6868 6.73303 11.7846 6.60913 11.9079C6.48523 12.0313 6.38684 12.1779 6.31958 12.3393C6.25233 12.5007 6.21752 12.6737 6.21714 12.8486C6.21714 13.5389 6.74629 14.1063 7.42286 14.1709L7.55143 14.1766H11.8011L10.6097 18.6046H7.55143C7.37653 18.6042 7.20328 18.6383 7.04156 18.7049C6.87985 18.7715 6.73283 18.8693 6.60893 18.9927C6.48502 19.1161 6.38664 19.2628 6.31942 19.4242C6.2522 19.5857 6.21744 19.7588 6.21714 19.9337C6.21714 20.624 6.74629 21.1914 7.42286 21.256L7.55143 21.2617H9.89429L9.14914 24.036C9.09212 24.2492 9.07771 24.4715 9.10676 24.6902C9.13581 24.9089 9.20773 25.1198 9.31841 25.3107C9.42909 25.5016 9.57635 25.6687 9.75175 25.8026C9.92715 25.9365 10.1272 26.0344 10.3406 26.0909C10.7497 26.2006 11.1851 26.1523 11.5603 25.9557C11.9355 25.7591 12.223 25.4286 12.3657 25.0297L12.4046 24.904L13.3846 21.2617H16.6349L15.8897 24.036C15.8327 24.2492 15.8183 24.4715 15.8473 24.6902C15.8764 24.9089 15.9483 25.1198 16.059 25.3107C16.1697 25.5016 16.3169 25.6687 16.4923 25.8026C16.6677 25.9365 16.8678 26.0344 17.0811 26.0909C17.4902 26.2004 17.9255 26.1521 18.3006 25.9555C18.6756 25.7589 18.963 25.4284 19.1057 25.0297L19.1446 24.904L20.1246 21.2617H24.4486C24.8016 21.2625 25.1405 21.123 25.3907 20.874C25.6409 20.6249 25.7819 20.2867 25.7829 19.9337C25.7822 19.6029 25.6583 19.2841 25.4354 19.0397C25.2125 18.7952 24.9065 18.6425 24.5771 18.6114L24.4486 18.6051L20.84 18.6046L23.5063 8.696C23.5634 8.4828 23.5779 8.26043 23.5489 8.04163C23.5199 7.82283 23.448 7.61191 23.3373 7.42095C23.2266 7.23 23.0793 7.06277 22.9038 6.92886C22.7284 6.79494 22.5282 6.69698 22.3149 6.64057V6.64ZM17.92 14.2629L16.7429 18.6514H13.5314L14.7086 14.2629H17.92ZM24.96 11.52C24.5963 11.52 24.2474 11.6645 23.9903 11.9217C23.7331 12.1789 23.5886 12.5277 23.5886 12.8914C23.5886 13.2552 23.7331 13.604 23.9903 13.8612C24.2474 14.1184 24.5963 14.2629 24.96 14.2629C25.3237 14.2629 25.6726 14.1184 25.9297 13.8612C26.1869 13.604 26.3314 13.2552 26.3314 12.8914C26.3314 12.5277 26.1869 12.1789 25.9297 11.9217C25.6726 11.6645 25.3237 11.52 24.96 11.52Z" fill="#1083FE"/>
</g>
<defs>
<clipPath id="clip0_3056_4554">
<rect width="32" height="32" fill="white"/>
</clipPath>
</defs>
</svg>
