<svg width="159" height="132" viewBox="0 0 159 132" fill="none" xmlns="http://www.w3.org/2000/svg">
<g opacity="0.3" clip-path="url(#clip0_3056_4543)">
<path d="M101.727 3.07048C108.202 6.02922 111.054 13.6757 108.097 20.1492C107.97 20.4271 107.834 20.6983 107.69 20.9626C107.743 21.0431 107.794 21.1267 107.841 21.2133L122.915 48.7625L126.955 50.6087C131.677 52.7661 133.757 58.3416 131.6 63.062L108.393 113.855C106.236 118.576 100.66 120.653 95.9382 118.496L18.0129 82.8924C13.291 80.7348 11.2114 75.1593 13.3681 70.439L36.5751 19.6458C38.7318 14.9254 44.308 12.8477 49.03 15.0052L54.7804 17.6324L83.9535 11.3228C84.1158 10.745 84.318 10.1791 84.5586 9.62933L84.6456 9.43474C87.6034 2.96115 95.2508 0.111781 101.727 3.07048ZM97.4229 85.0813L42.1364 59.8214L42.061 59.788C40.3236 59.0423 38.2998 59.8169 37.5102 61.545C36.7172 63.2807 37.4663 65.3278 39.1832 66.1461L39.2354 66.1705L94.522 91.4305L94.5974 91.4639C96.3348 92.2096 98.3585 91.435 99.1481 89.7069C99.9491 87.9536 99.1768 85.8827 97.4229 85.0813ZM79.7658 55.171L50.3927 41.7507L50.3173 41.7173C48.58 40.9717 46.5562 41.7462 45.7666 43.4744C44.9735 45.2101 45.7227 47.2572 47.4395 48.0755L47.4918 48.0999L76.8649 61.5202L76.9402 61.5536C78.6777 62.2993 80.7014 61.5247 81.491 59.7965C82.292 58.0433 81.5198 55.9724 79.7658 55.171ZM112.304 43.9145L102.558 26.101C99.1143 27.9797 94.8588 28.2694 91.0156 26.5135C87.4882 24.9019 85.036 21.8993 84.0123 18.453L65.391 22.4802L112.304 43.9145ZM98.8258 9.41968C95.8576 8.06354 92.3525 9.36947 90.9969 12.3366C89.6412 15.3037 90.9484 18.8083 93.9165 20.1644C96.8845 21.5204 100.39 20.2145 101.745 17.2474C103.101 14.2803 101.794 10.7758 98.8258 9.41968Z" fill="url(#paint0_linear_3056_4543)"/>
</g>
<defs>
<linearGradient id="paint0_linear_3056_4543" x1="9" y1="38.5" x2="87" y2="83.5" gradientUnits="userSpaceOnUse">
<stop stop-color="white"/>
<stop offset="1" stop-color="white" stop-opacity="0.5"/>
</linearGradient>
<clipPath id="clip0_3056_4543">
<rect width="119.532" height="119.532" fill="white" transform="translate(49.6738 -27) rotate(24.5553)"/>
</clipPath>
</defs>
</svg>
