<svg width="44" height="44" viewBox="0 0 44 44" fill="none" xmlns="http://www.w3.org/2000/svg">
<g clip-path="url(#clip0_432_1724)">
<path d="M40.7616 1.77417H40.7249C29.8133 -1.40103 20.8212 -0.312073 14.0253 5.00437C3.4841 13.2394 1.52618 29.0622 1.1742 35.0258C1.15644 35.3227 1.19961 35.62 1.30106 35.8995C1.40251 36.1791 1.56008 36.4349 1.76409 36.6513C1.9681 36.8677 2.21423 37.04 2.48733 37.1577C2.76043 37.2754 3.05472 37.336 3.35211 37.3357C3.90337 37.3363 4.43404 37.1264 4.83575 36.7488C5.23745 36.3713 5.47988 35.8547 5.51352 35.3045C5.58685 34.2503 5.69684 32.8296 5.937 31.187C6.10383 30.0412 7.13778 29.1924 8.28357 29.3024C9.90784 29.449 12.0124 29.339 13.9685 28.2867C15.2079 27.6204 16.2566 26.6486 17.0154 25.4635C17.2252 25.141 17.5172 24.8802 17.8614 24.7081C18.2055 24.536 18.5894 24.4589 18.9733 24.4846C21.2447 24.6129 23.2191 24.1143 24.9002 22.952C26.783 21.6595 27.8719 19.8134 28.5007 18.2442C28.7574 17.5787 29.3312 17.0984 30.0315 16.9334C34.2975 15.9361 40.0228 12.6307 42.2373 4.52589L42.2557 4.45256C42.4091 3.89909 42.3381 3.30744 42.058 2.80601C41.778 2.30457 41.3114 1.93381 40.7597 1.77417H40.7616ZM36.4772 7.10895C33.137 12.7426 27.4319 12.8159 27.1533 12.8159H26.4347C26.099 12.8121 25.7738 12.9324 25.5214 13.1537C25.269 13.3749 25.1072 13.6816 25.067 14.0148L24.9754 14.7903C24.9754 14.827 24.5684 17.8005 22.4822 19.2396C21.1347 20.1636 19.2336 20.2937 16.8706 19.5916L16.0951 19.3698C15.7472 19.2732 15.3753 19.318 15.0604 19.4945C14.7454 19.671 14.5131 19.9649 14.414 20.3121L14.194 21.1242C13.7687 22.6935 13.0482 23.7274 11.9758 24.2994C10.2598 25.2417 8.04525 24.7981 7.23128 24.5762C8.74555 18.8711 11.5339 12.5391 16.6487 8.53156C21.505 4.74588 27.8554 3.60193 35.5734 5.07954C36.4772 5.26286 36.9576 6.29682 36.4772 7.11079V7.10895ZM39.9476 40.3074H2.76547C2.27598 40.3084 1.80679 40.5031 1.4605 40.8491C1.11421 41.195 0.918994 41.664 0.917542 42.1535C0.918992 42.6427 1.11396 43.1114 1.45985 43.4573C1.80575 43.8032 2.27446 43.9981 2.76363 43.9996H39.9494C40.4386 43.9981 40.9073 43.8032 41.2532 43.4573C41.5991 43.1114 41.7941 42.6427 41.7955 42.1535C41.7955 41.1379 40.9834 40.3074 39.9494 40.3074H39.9476Z" fill="white"/>
</g>
<defs>
<clipPath id="clip0_432_1724">
<rect width="44" height="44" fill="white"/>
</clipPath>
</defs>
</svg>
