<svg width="104" height="120" viewBox="0 0 104 120" fill="none" xmlns="http://www.w3.org/2000/svg">
<path opacity="0.3" d="M77 8C64.5398 8 52.3594 11.6949 41.9991 18.6174C31.6388 25.5399 23.5639 35.3792 18.7956 46.8909C14.0273 58.4027 12.7797 71.0699 15.2105 83.2907C17.6414 95.5115 23.6416 106.737 32.4523 115.548C41.263 124.358 52.4885 130.359 64.7093 132.789C76.9301 135.22 89.5973 133.973 101.109 129.204C112.621 124.436 122.46 116.361 129.383 106.001C136.305 95.6406 140 83.4602 140 71C139.979 54.2979 133.334 38.2861 121.524 26.4759C109.714 14.6658 93.7021 8.02143 77 8ZM98.186 74.177L80.186 92.177C79.3421 93.0206 78.1977 93.4945 77.0045 93.4945C75.8113 93.4945 74.6669 93.0206 73.823 92.177L55.823 74.177C54.9821 73.3335 54.51 72.191 54.51 71C54.51 69.809 54.9821 68.6665 55.823 67.823L73.823 49.823C74.6669 48.9794 75.8113 48.5055 77.0045 48.5055C78.1977 48.5055 79.3421 48.9794 80.186 49.823L98.186 67.823C99.0269 68.6665 99.499 69.809 99.499 71C99.499 72.191 99.0269 73.3335 98.186 74.177Z" fill="url(#paint0_linear_493_1104)"/>
<defs>
<linearGradient id="paint0_linear_493_1104" x1="14" y1="71" x2="140" y2="71" gradientUnits="userSpaceOnUse">
<stop stop-color="white"/>
<stop offset="1" stop-color="white" stop-opacity="0.1"/>
</linearGradient>
</defs>
</svg>
