<svg xmlns="http://www.w3.org/2000/svg" width="120" height="120" viewBox="0 0 120 120" fill="none">
  <g opacity="0.1">
    <path d="M58.6386 0.000976562C37.8207 2.3118 26.2549 11.3355 23.9411 27.0631C23.4783 32.1534 26.022 34.9299 31.5751 35.3911C34.3485 35.8553 36.6623 33.773 38.5134 29.1455C41.2898 19.4307 47.9894 14.5732 58.6386 14.5732C71.5853 15.4973 78.5251 21.9743 79.4594 34.0029C79.4594 45.1075 71.9227 46.9172 67.8288 50.2655C62.6412 54.5098 59.2487 58.8146 55.0958 66.1111C51.606 72.2417 51.0047 85.3565 51.0047 85.3565C51.0047 90.908 53.5424 93.6845 58.6387 93.6845C63.2574 93.6845 65.8099 90.908 66.274 85.3565C66.274 85.3565 66.8856 70.6384 72.8278 64.1304C79.5628 56.7544 95.6499 51.583 96.1127 32.6161C94.2616 12.7223 81.7702 1.85055 58.6386 0.000976562ZM58.6386 100.683C53.3037 100.683 48.9813 105.009 48.9813 110.341C48.9813 115.675 53.3037 120 58.6386 120C63.9734 120 68.2974 115.676 68.2974 110.341C68.2974 105.009 63.9734 100.683 58.6386 100.683Z" fill="white"/>
  </g>
</svg>