<svg width="28" height="24" viewBox="0 0 28 24" fill="none" xmlns="http://www.w3.org/2000/svg">
<path d="M26 10.0088H6L12.58 3.42405C12.7675 3.23799 12.9162 3.01663 13.0178 2.77274C13.1193 2.52884 13.1716 2.26724 13.1716 2.00303C13.1716 1.73881 13.1193 1.47721 13.0178 1.23332C12.9162 0.989426 12.7675 0.768064 12.58 0.582004C12.2053 0.209234 11.6984 0 11.17 0C10.6416 0 10.1347 0.209234 9.76 0.582004L1.18 9.1882C0.428825 9.93544 0.00446558 10.9503 0 12.0102C0.00973317 13.0632 0.433689 14.0699 1.18 14.8123L9.76 23.4185C9.94648 23.6038 10.1676 23.7505 10.4107 23.8503C10.6539 23.95 10.9143 24.0009 11.1771 24C11.4399 23.9991 11.6999 23.9463 11.9423 23.8448C12.1848 23.7433 12.4048 23.5951 12.59 23.4084C12.7752 23.2218 12.9218 23.0006 13.0215 22.7572C13.1212 22.5139 13.172 22.2533 13.1711 21.9904C13.1702 21.7274 13.1175 21.4672 13.0161 21.2246C12.9147 20.9819 12.7665 20.7617 12.58 20.5764L6 14.0117H26C26.5304 14.0117 27.0391 13.8008 27.4142 13.4255C27.7893 13.0501 28 12.5411 28 12.0102C28 11.4794 27.7893 10.9703 27.4142 10.595C27.0391 10.2197 26.5304 10.0088 26 10.0088Z" fill="white"/>
</svg>
