<svg width="32" height="32" viewBox="0 0 32 32" fill="none" xmlns="http://www.w3.org/2000/svg">
<path d="M16.0002 29.017C14.29 29.017 12.6331 28.6828 11.0722 28.0214C9.56464 27.385 8.20998 26.4712 7.04731 25.3086C5.88465 24.1459 4.97087 22.7912 4.33442 21.2837C3.67309 19.7228 3.33887 18.0623 3.33887 16.3557C3.33887 14.649 3.67309 12.9886 4.33442 11.4277C4.97087 9.92011 5.88465 8.56545 7.04731 7.40278C8.20998 6.24011 9.56465 5.32634 11.0722 4.68989C12.6331 4.02856 14.2935 3.69434 16.0002 3.69434C17.7069 3.69434 19.3673 4.02856 20.9282 4.68989C22.4358 5.32634 23.7904 6.24011 24.9531 7.40278C26.1158 8.56545 27.0295 9.92011 27.666 11.4277C28.3273 12.9886 28.6615 14.649 28.6615 16.3557C28.6615 18.0623 28.3273 19.7228 27.666 21.2837C27.0295 22.7912 26.1158 24.1459 24.9531 25.3086C23.7904 26.4712 22.4358 27.385 20.9282 28.0214C19.3673 28.6828 17.7104 29.017 16.0002 29.017ZM16.0002 5.82767C13.1878 5.82767 10.546 6.92278 8.55487 8.91034C6.56376 10.8979 5.4722 13.5432 5.4722 16.3557C5.4722 19.1681 6.56731 21.8099 8.55487 23.801C10.5424 25.7921 13.1878 26.8837 16.0002 26.8837C18.8126 26.8837 21.4544 25.7886 23.4455 23.801C25.4366 21.8134 26.5282 19.1681 26.5282 16.3557C26.5282 13.5432 25.4331 10.9014 23.4455 8.91034C21.458 6.91922 18.8126 5.82767 16.0002 5.82767Z" fill="#6F869F"/>
<path d="M15.2893 18.1334C14.6991 18.1334 14.2227 17.657 14.2227 17.0668V10.137C14.2227 9.54676 14.6991 9.07031 15.2893 9.07031C15.8795 9.07031 16.356 9.54676 16.356 10.137V17.0668C16.356 17.657 15.8795 18.1334 15.2893 18.1334Z" fill="#6F869F"/>
<path d="M20.7969 18.1333H15.2893C14.6991 18.1333 14.2227 17.6569 14.2227 17.0667C14.2227 16.4764 14.6991 16 15.2893 16H20.7969C21.3871 16 21.8635 16.4764 21.8635 17.0667C21.8635 17.6569 21.3871 18.1333 20.7969 18.1333Z" fill="#6F869F"/>
</svg>
