<svg width="32" height="32" viewBox="0 0 32 32" fill="none" xmlns="http://www.w3.org/2000/svg">
<rect opacity="0.01" width="32" height="32" fill="#D8D8D8"/>
<path d="M24.4857 5.62874C25.0064 5.10817 25.8508 5.10809 26.3715 5.62874C26.8682 6.12577 26.8905 6.9175 26.4388 7.44125L26.3715 7.51449L17.8861 15.9998L26.3715 24.4852C26.8918 25.0059 26.892 25.8503 26.3715 26.3709C25.8744 26.8679 25.0818 26.8901 24.558 26.4383L24.4857 26.3709L16.0004 17.8856L7.515 26.3709C6.99438 26.8914 6.14993 26.8913 5.62926 26.3709C5.13223 25.8739 5.11003 25.0813 5.56188 24.5575L5.62926 24.4852L14.1146 15.9998L5.62926 7.51449C5.10858 6.99381 5.10863 6.14945 5.62926 5.62874C6.12629 5.13171 6.91793 5.10952 7.44176 5.56136L7.515 5.62874L16.0004 14.1141L24.4857 5.62874Z" fill="#6F869F"/>
</svg>
