<svg width="32" height="32" viewBox="0 0 32 32" fill="none" xmlns="http://www.w3.org/2000/svg">
<path d="M1.93848 15.9396C1.93848 19.6579 3.41555 23.2238 6.04475 25.853C8.67395 28.4822 12.2399 29.9593 15.9582 29.9593C19.6764 29.9593 23.2424 28.4822 25.8716 25.853C28.5008 23.2238 29.9779 19.6579 29.9779 15.9396C29.9779 12.2214 28.5008 8.6554 25.8716 6.02619C23.2424 3.39699 19.6764 1.91992 15.9582 1.91992C12.2399 1.91992 8.67395 3.39699 6.04475 6.02619C3.41555 8.6554 1.93848 12.2214 1.93848 15.9396Z" fill="#6F869F"/>
<path d="M19.5546 10.4194C20.1139 9.86026 21.0208 9.86017 21.58 10.4194C22.1393 10.9786 22.1392 11.8854 21.58 12.4448L18.0244 15.9994L21.58 19.5551C22.1391 20.1144 22.1393 21.0213 21.58 21.5805C21.3004 21.8601 20.934 22.0004 20.5673 22.0004C20.2007 22.0004 19.8343 21.8601 19.5546 21.5805L15.999 18.0248L12.4443 21.5805C12.1646 21.8601 11.7979 22.0004 11.4316 22.0004C11.0649 22.0004 10.6985 21.8601 10.4189 21.5805C9.85965 21.0213 9.85983 20.1144 10.4189 19.5551L13.9736 15.9994L10.4189 12.4448C9.8598 11.8854 9.85965 10.9786 10.4189 10.4194C10.9781 9.86013 11.8849 9.8603 12.4443 10.4194L15.999 13.9741L19.5546 10.4194Z" fill="white"/>
</svg>
