<svg width="28" height="28" viewBox="0 0 28 28" fill="none" xmlns="http://www.w3.org/2000/svg">
<path d="M22.292 2.19385H5.69707C2.6384 2.19385 0.149841 4.68213 0.149841 7.74135V20.5929C0.149841 23.6524 2.63867 26.1407 5.69707 26.1407H22.2917C25.3507 26.1407 27.8392 23.6524 27.8392 20.5932V7.74162C27.8395 4.68213 25.3509 2.19385 22.292 2.19385ZM19.3164 12.2976L25.1445 6.03291C25.4461 6.53439 25.6301 7.11463 25.6301 7.74162V18.1085L19.3164 12.2976ZM22.292 4.40322C22.6978 4.40322 23.082 4.48662 23.4421 4.61979L13.9943 14.775L4.54726 4.61979C4.90738 4.48662 5.29156 4.40322 5.69707 4.40322H22.292ZM2.84484 6.03291L8.67262 12.2976L2.35922 18.1085V7.74162C2.35922 7.1149 2.54324 6.53439 2.84484 6.03291ZM22.292 23.9313H5.69707C4.01844 23.9313 2.63922 22.682 2.40679 21.0662L10.1768 13.9147L13.994 18.0182L17.8117 13.9147L25.5823 21.0662C25.3498 22.682 23.9704 23.9313 22.292 23.9313Z" fill="#6F869F"/>
</svg>
