<svg width="48" height="48" viewBox="0 0 48 48" fill="none" xmlns="http://www.w3.org/2000/svg">
<path d="M42.4286 11.5888H33.9429C34.5659 10.7763 34.9781 9.82221 35.1429 8.81167C35.2453 8.09156 35.1993 7.35811 35.0076 6.65645C34.816 5.95479 34.4828 5.29976 34.0286 4.73167C33.142 3.57285 31.832 2.81292 30.3859 2.6185C28.9398 2.42408 27.4756 2.81104 26.3143 3.69453C25.2303 4.82854 24.4364 6.20767 24 7.71453C23.5587 6.2199 22.765 4.85304 21.6858 3.72881C20.5237 2.84754 19.0601 2.46195 17.6147 2.65628C16.1693 2.85061 14.8595 3.60906 13.9715 4.76596C13.1099 5.92905 12.7126 7.37146 12.8572 8.81167C12.9839 9.83294 13.4003 10.7966 14.0572 11.5888H5.57148C5.28757 11.5876 5.00628 11.6431 4.74408 11.752C4.48188 11.8609 4.24404 12.021 4.04449 12.2229C3.84493 12.4249 3.68768 12.6646 3.58193 12.9281C3.47618 13.1916 3.42406 13.4735 3.42862 13.7574V24.1717C3.42406 24.4555 3.47618 24.7375 3.58193 25.001C3.68768 25.2644 3.84493 25.5042 4.04449 25.7061C4.24404 25.9081 4.48188 26.0682 4.74408 26.1771C5.00628 26.2859 5.28757 26.3414 5.57148 26.3402H6.85719V43.2602C6.85263 43.5441 6.90475 43.826 7.0105 44.0895C7.11625 44.353 7.27351 44.5927 7.47306 44.7947C7.67261 44.9966 7.91045 45.1567 8.17265 45.2656C8.43485 45.3745 8.71614 45.43 9.00005 45.4288H39.8572C40.1411 45.43 40.4224 45.3745 40.6846 45.2656C40.9468 45.1567 41.1846 44.9966 41.3842 44.7947C41.5837 44.5927 41.741 44.353 41.8467 44.0895C41.9525 43.826 42.0046 43.5441 42 43.2602V26.3402H42.4286C42.7125 26.3414 42.9938 26.2859 43.256 26.1771C43.5182 26.0682 43.7561 25.9081 43.9556 25.7061C44.1552 25.5042 44.3124 25.2644 44.4182 25.001C44.5239 24.7375 44.576 24.4555 44.5715 24.1717V13.7574C44.576 13.4735 44.5239 13.1916 44.4182 12.9281C44.3124 12.6646 44.1552 12.4249 43.9556 12.2229C43.7561 12.021 43.5182 11.8609 43.256 11.752C42.9938 11.6431 42.7125 11.5876 42.4286 11.5888ZM27.8572 5.77739C28.4806 5.32413 29.2534 5.12585 30.018 5.22302C30.7826 5.32018 31.4813 5.70547 31.9715 6.30024C32.4284 6.92617 32.6416 7.69706 32.5715 8.46881C32.5285 8.84611 32.4072 9.21027 32.2154 9.53796C32.0235 9.86564 31.7652 10.1496 31.4572 10.3717C30.6858 10.9802 28.1143 11.1517 25.7143 11.066C26.2286 8.81167 27.1715 6.38596 27.8572 5.77739ZM16.0286 6.30024C16.2955 5.9382 16.6444 5.64457 17.0466 5.44343C17.4489 5.24229 17.8932 5.13937 18.3429 5.1431C18.9933 5.14369 19.6256 5.35746 20.1429 5.75167C20.9143 6.36024 21.7715 8.78596 22.3715 11.126C20.1429 11.2202 17.4 11.0402 16.6286 10.4317C16.3255 10.2144 16.0702 9.93717 15.8786 9.61724C15.6869 9.29731 15.5629 8.94144 15.5143 8.57167C15.4447 8.18063 15.4544 7.77959 15.5427 7.39234C15.6311 7.0051 15.7963 6.63955 16.0286 6.31739V6.30024ZM6.00005 23.7345V14.1945H18.8572V23.7345H6.00005ZM9.42862 42.8574V26.3402H18.8572V42.8574H9.42862ZM21.4286 42.8574V14.1945H26.5715V42.8574H21.4286ZM39.4286 42.8574H29.1429V26.3402H39.4286V42.8574ZM42 23.7688H29.1429V14.1945H42V23.7688Z" fill="#42576C"/>
</svg>
