<svg width="103" height="122" viewBox="0 0 103 122" fill="none" xmlns="http://www.w3.org/2000/svg">
<g opacity="0.3">
<path d="M15.5488 39.3948C15.5488 43.137 16.9831 46.8426 19.7698 50.2999C22.5565 53.7573 26.641 56.8987 31.7901 59.5448C36.9392 62.191 43.0521 64.29 49.7798 65.7221C56.5074 67.1542 63.718 67.8913 71 67.8913C78.282 67.8913 85.4926 67.1542 92.2203 65.7221C98.9479 64.29 105.061 62.191 110.21 59.5448C115.359 56.8987 119.444 53.7573 122.23 50.2999C125.017 46.8426 126.451 43.137 126.451 39.3948C126.451 31.8371 120.609 24.589 110.21 19.2448C99.8108 13.9007 85.7066 10.8984 71 10.8984C56.2934 10.8984 42.1892 13.9007 31.7901 19.2448C21.391 24.589 15.5488 31.8371 15.5488 39.3948Z" fill="url(#paint0_linear_493_1098)"/>
<path d="M71 76.465C48.35 76.465 28.8726 69.486 20.2641 59.4844C17.2332 63.0059 15.5488 66.9018 15.5488 71.0001C15.5488 86.7383 40.3752 99.4966 71 99.4966C101.625 99.4966 126.451 86.7383 126.451 71.0001C126.451 66.9018 124.767 63.0059 121.736 59.4844C113.127 69.486 93.65 76.465 71 76.465Z" fill="url(#paint1_linear_493_1098)"/>
<path d="M71 108.855C48.0544 108.855 28.3644 101.693 19.9322 91.4814C17.1102 94.8989 15.5488 98.6579 15.5488 102.604C15.5488 118.342 40.3752 131.101 71 131.101C101.625 131.101 126.451 118.342 126.451 102.604C126.451 98.6578 124.89 94.8989 122.068 91.4814C113.636 101.693 93.9456 108.855 71 108.855Z" fill="url(#paint2_linear_493_1098)"/>
</g>
<defs>
<linearGradient id="paint0_linear_493_1098" x1="15.5488" y1="39.3948" x2="126.451" y2="39.3948" gradientUnits="userSpaceOnUse">
<stop stop-color="white"/>
<stop offset="1" stop-color="white" stop-opacity="0.1"/>
</linearGradient>
<linearGradient id="paint1_linear_493_1098" x1="15.5488" y1="79.4905" x2="126.451" y2="79.4905" gradientUnits="userSpaceOnUse">
<stop stop-color="white"/>
<stop offset="1" stop-color="white" stop-opacity="0.1"/>
</linearGradient>
<linearGradient id="paint2_linear_493_1098" x1="15.5488" y1="111.291" x2="126.451" y2="111.291" gradientUnits="userSpaceOnUse">
<stop stop-color="white"/>
<stop offset="1" stop-color="white" stop-opacity="0.1"/>
</linearGradient>
</defs>
</svg>
