<svg width="28" height="28" viewBox="0 0 28 28" fill="none" xmlns="http://www.w3.org/2000/svg">
<path d="M11.9819 27.6185C11.737 27.794 11.4562 27.9131 11.1597 27.967C10.8633 28.021 10.5585 28.0086 10.2675 27.9306C9.9764 27.8526 9.70626 27.711 9.4765 27.5161C9.24674 27.3211 9.06309 27.0776 8.93878 26.8031C8.63997 26.1436 8.14207 25.5943 7.51503 25.2323C6.88798 24.8704 6.1633 24.7139 5.44277 24.785C5.14294 24.8145 4.8403 24.7771 4.55664 24.6756C4.27299 24.574 4.01538 24.4109 3.80237 24.1978C3.58936 23.9847 3.42626 23.7271 3.32481 23.4434C3.22335 23.1597 3.18608 22.8571 3.21566 22.5572C3.28666 21.8366 3.13013 21.1119 2.76804 20.4848C2.40595 19.8578 1.85651 19.3599 1.19691 19.0612C0.922416 18.9369 0.678915 18.7533 0.483949 18.5235C0.288983 18.2937 0.147406 18.0236 0.0694193 17.7325C-0.0085676 17.4415 -0.021023 17.1367 0.0329506 16.8403C0.0869241 16.5438 0.205983 16.263 0.381548 16.0181C0.80321 15.4297 1.02996 14.7239 1.02996 14C1.02996 13.2761 0.80321 12.5703 0.381548 11.9819C0.205983 11.737 0.0869241 11.4562 0.0329506 11.1597C-0.021023 10.8633 -0.0085676 10.5585 0.0694193 10.2675C0.147406 9.9764 0.288983 9.70626 0.483949 9.4765C0.678915 9.24674 0.922416 9.06309 1.19691 8.93878C1.85639 8.63997 2.4057 8.14207 2.76767 7.51503C3.12964 6.88798 3.28609 6.1633 3.21503 5.44277C3.18554 5.14294 3.2229 4.8403 3.32443 4.55664C3.42596 4.27299 3.58914 4.01538 3.80221 3.80237C4.01527 3.58936 4.27293 3.42626 4.55661 3.32481C4.84029 3.22335 5.14295 3.18608 5.44277 3.21566C6.16337 3.28666 6.8881 3.13013 7.51516 2.76804C8.14221 2.40595 8.64007 1.85651 8.93878 1.19691C9.06309 0.922416 9.24674 0.678915 9.4765 0.483949C9.70626 0.288983 9.9764 0.147406 10.2675 0.0694193C10.5585 -0.0085676 10.8633 -0.021023 11.1597 0.0329506C11.4562 0.0869241 11.737 0.205983 11.9819 0.381548C12.5703 0.80321 13.2761 1.02996 14 1.02996C14.7239 1.02996 15.4297 0.80321 16.0181 0.381548C16.263 0.205983 16.5438 0.0869241 16.8403 0.0329506C17.1367 -0.021023 17.4415 -0.0085676 17.7325 0.0694193C18.0236 0.147406 18.2937 0.288983 18.5235 0.483949C18.7533 0.678915 18.9369 0.922416 19.0612 1.19691C19.36 1.85639 19.8579 2.4057 20.485 2.76767C21.112 3.12964 21.8367 3.28609 22.5572 3.21503C22.8571 3.18554 23.1597 3.2229 23.4434 3.32443C23.727 3.42596 23.9846 3.58914 24.1976 3.80221C24.4106 4.01527 24.5737 4.27293 24.6752 4.55661C24.7766 4.84029 24.8139 5.14295 24.7843 5.44277C24.7133 6.16337 24.8699 6.8881 25.232 7.51516C25.594 8.14221 26.1435 8.64007 26.8031 8.93878C27.0776 9.06309 27.3211 9.24674 27.5161 9.4765C27.711 9.70626 27.8526 9.9764 27.9306 10.2675C28.0086 10.5585 28.021 10.8633 27.967 11.1597C27.9131 11.4562 27.794 11.737 27.6185 11.9819C27.1968 12.5703 26.97 13.2761 26.97 14C26.97 14.7239 27.1968 15.4297 27.6185 16.0181C27.794 16.263 27.9131 16.5438 27.967 16.8403C28.021 17.1367 28.0086 17.4415 27.9306 17.7325C27.8526 18.0236 27.711 18.2937 27.5161 18.5235C27.3211 18.7533 27.0776 18.9369 26.8031 19.0612C26.1436 19.36 25.5943 19.8579 25.2323 20.485C24.8704 21.112 24.7139 21.8367 24.785 22.5572C24.8145 22.8571 24.7771 23.1597 24.6756 23.4434C24.574 23.727 24.4109 23.9846 24.1978 24.1976C23.9847 24.4106 23.7271 24.5737 23.4434 24.6752C23.1597 24.7766 22.8571 24.8139 22.5572 24.7843C21.8366 24.7133 21.1119 24.8699 20.4848 25.232C19.8578 25.594 19.3599 26.1435 19.0612 26.8031C18.9369 27.0776 18.7533 27.3211 18.5235 27.5161C18.2937 27.711 18.0236 27.8526 17.7325 27.9306C17.4415 28.0086 17.1367 28.021 16.8403 27.967C16.5438 27.9131 16.263 27.794 16.0181 27.6185C15.4297 27.1968 14.7239 26.97 14 26.97C13.2761 26.97 12.5703 27.1968 11.9819 27.6185Z" fill="#1083FE"/>
<path d="M12.3856 15.5192L18.8464 8.91699L21 11.1167L12.3856 19.917L10.2289 17.7189L7 14.4193L9.15361 12.2181L12.3856 15.5192Z" fill="white"/>
</svg>
